<svg width="52" height="19" viewBox="0 0 52 19" fill="none" xmlns="http://www.w3.org/2000/svg">
<path d="M4.01772 9.144C3.34572 9.144 2.70172 9.056 2.08572 8.88C1.46972 8.696 0.973719 8.46 0.597719 8.172L1.25772 6.708C1.61772 6.964 2.04172 7.176 2.52972 7.344C3.02572 7.504 3.52572 7.584 4.02972 7.584C4.41372 7.584 4.72172 7.548 4.95372 7.476C5.19372 7.396 5.36972 7.288 5.48172 7.152C5.59372 7.016 5.64972 6.86 5.64972 6.684C5.64972 6.46 5.56172 6.284 5.38572 6.156C5.20972 6.02 4.97772 5.912 4.68972 5.832C4.40172 5.744 4.08172 5.664 3.72972 5.592C3.38572 5.512 3.03772 5.416 2.68572 5.304C2.34172 5.192 2.02572 5.048 1.73772 4.872C1.44972 4.696 1.21372 4.464 1.02972 4.176C0.853719 3.888 0.765719 3.52 0.765719 3.072C0.765719 2.592 0.893719 2.156 1.14972 1.764C1.41372 1.364 1.80572 1.048 2.32572 0.816C2.85372 0.576 3.51372 0.456 4.30572 0.456C4.83372 0.456 5.35372 0.52 5.86572 0.648C6.37772 0.767999 6.82972 0.951999 7.22172 1.2L6.62172 2.676C6.22972 2.452 5.83772 2.288 5.44572 2.184C5.05372 2.072 4.66972 2.016 4.29372 2.016C3.91772 2.016 3.60972 2.06 3.36972 2.148C3.12972 2.236 2.95772 2.352 2.85372 2.496C2.74972 2.632 2.69772 2.792 2.69772 2.976C2.69772 3.192 2.78572 3.368 2.96172 3.504C3.13772 3.632 3.36972 3.736 3.65772 3.816C3.94572 3.896 4.26172 3.976 4.60572 4.056C4.95772 4.136 5.30572 4.228 5.64972 4.332C6.00172 4.436 6.32172 4.576 6.60972 4.752C6.89772 4.928 7.12972 5.16 7.30572 5.448C7.48972 5.736 7.58172 6.1 7.58172 6.54C7.58172 7.012 7.44972 7.444 7.18572 7.836C6.92172 8.228 6.52572 8.544 5.99772 8.784C5.47772 9.024 4.81772 9.144 4.01772 9.144ZM10.5329 9V2.184H7.84488V0.599999H15.1649V2.184H12.4769V9H10.5329ZM16.2108 9V0.599999H19.8468C20.5988 0.599999 21.2468 0.724 21.7908 0.972C22.3348 1.212 22.7548 1.56 23.0508 2.016C23.3468 2.472 23.4948 3.016 23.4948 3.648C23.4948 4.272 23.3468 4.812 23.0508 5.268C22.7548 5.716 22.3348 6.06 21.7908 6.3C21.2468 6.54 20.5988 6.66 19.8468 6.66H17.2908L18.1548 5.808V9H16.2108ZM21.5508 9L19.4508 5.952H21.5268L23.6508 9H21.5508ZM18.1548 6.024L17.2908 5.112H19.7388C20.3388 5.112 20.7868 4.984 21.0828 4.728C21.3788 4.464 21.5268 4.104 21.5268 3.648C21.5268 3.184 21.3788 2.824 21.0828 2.568C20.7868 2.312 20.3388 2.184 19.7388 2.184H17.2908L18.1548 1.26V6.024ZM26.8231 3.984H30.8671V5.496H26.8231V3.984ZM26.9671 7.44H31.5391V9H25.0351V0.599999H31.3831V2.16H26.9671V7.44ZM31.9818 9L35.7258 0.599999H37.6458L41.4018 9H39.3618L36.2898 1.584H37.0578L33.9738 9H31.9818ZM33.8538 7.2L34.3698 5.724H38.6898L39.2178 7.2H33.8538ZM42.2733 9V0.599999H43.8813L47.4573 6.528H46.6053L50.1213 0.599999H51.7173L51.7413 9H49.9173L49.9053 3.396H50.2413L47.4333 8.112H46.5573L43.6893 3.396H44.0973V9H42.2733Z" fill="#5B5B5B"/>
<path d="M4.15248 18.144C3.48048 18.144 2.83648 18.056 2.22048 17.88C1.60448 17.696 1.10848 17.46 0.732484 17.172L1.39248 15.708C1.75248 15.964 2.17648 16.176 2.66448 16.344C3.16048 16.504 3.66048 16.584 4.16448 16.584C4.54848 16.584 4.85648 16.548 5.08848 16.476C5.32848 16.396 5.50448 16.288 5.61648 16.152C5.72848 16.016 5.78448 15.86 5.78448 15.684C5.78448 15.46 5.69648 15.284 5.52048 15.156C5.34448 15.02 5.11248 14.912 4.82448 14.832C4.53648 14.744 4.21648 14.664 3.86448 14.592C3.52048 14.512 3.17248 14.416 2.82048 14.304C2.47648 14.192 2.16048 14.048 1.87248 13.872C1.58448 13.696 1.34848 13.464 1.16448 13.176C0.988484 12.888 0.900484 12.52 0.900484 12.072C0.900484 11.592 1.02848 11.156 1.28448 10.764C1.54848 10.364 1.94048 10.048 2.46048 9.816C2.98848 9.576 3.64848 9.456 4.44048 9.456C4.96848 9.456 5.48848 9.52 6.00048 9.648C6.51248 9.768 6.96448 9.952 7.35648 10.2L6.75648 11.676C6.36448 11.452 5.97248 11.288 5.58048 11.184C5.18848 11.072 4.80448 11.016 4.42848 11.016C4.05248 11.016 3.74448 11.06 3.50448 11.148C3.26448 11.236 3.09248 11.352 2.98848 11.496C2.88448 11.632 2.83248 11.792 2.83248 11.976C2.83248 12.192 2.92048 12.368 3.09648 12.504C3.27248 12.632 3.50448 12.736 3.79248 12.816C4.08048 12.896 4.39648 12.976 4.74048 13.056C5.09248 13.136 5.44048 13.228 5.78448 13.332C6.13648 13.436 6.45648 13.576 6.74448 13.752C7.03248 13.928 7.26448 14.16 7.44048 14.448C7.62448 14.736 7.71648 15.1 7.71648 15.54C7.71648 16.012 7.58448 16.444 7.32048 16.836C7.05648 17.228 6.66048 17.544 6.13248 17.784C5.61248 18.024 4.95248 18.144 4.15248 18.144ZM10.8328 12.984H14.8768V14.496H10.8328V12.984ZM10.9768 16.44H15.5488V18H9.04483V9.6H15.3928V11.16H10.9768V16.44ZM15.9916 18L19.7356 9.6H21.6556L25.4116 18H23.3716L20.2996 10.584H21.0676L17.9836 18H15.9916ZM17.8636 16.2L18.3796 14.724H22.6996L23.2276 16.2H17.8636ZM26.2831 18V9.6H29.9191C30.6711 9.6 31.3191 9.724 31.8631 9.972C32.4071 10.212 32.8271 10.56 33.1231 11.016C33.4191 11.472 33.5671 12.016 33.5671 12.648C33.5671 13.272 33.4191 13.812 33.1231 14.268C32.8271 14.716 32.4071 15.06 31.8631 15.3C31.3191 15.54 30.6711 15.66 29.9191 15.66H27.3631L28.2271 14.808V18H26.2831ZM31.6231 18L29.5231 14.952H31.5991L33.7231 18H31.6231ZM28.2271 15.024L27.3631 14.112H29.8111C30.4111 14.112 30.8591 13.984 31.1551 13.728C31.4511 13.464 31.5991 13.104 31.5991 12.648C31.5991 12.184 31.4511 11.824 31.1551 11.568C30.8591 11.312 30.4111 11.184 29.8111 11.184H27.3631L28.2271 10.26V15.024ZM39.1273 18.144C38.4793 18.144 37.8753 18.04 37.3153 17.832C36.7633 17.616 36.2833 17.312 35.8753 16.92C35.4673 16.528 35.1473 16.068 34.9153 15.54C34.6913 15.012 34.5793 14.432 34.5793 13.8C34.5793 13.168 34.6913 12.588 34.9153 12.06C35.1473 11.532 35.4673 11.072 35.8753 10.68C36.2913 10.288 36.7753 9.988 37.3273 9.78C37.8793 9.564 38.4833 9.456 39.1393 9.456C39.8673 9.456 40.5233 9.584 41.1073 9.84C41.6993 10.088 42.1953 10.456 42.5953 10.944L41.3473 12.096C41.0593 11.768 40.7393 11.524 40.3873 11.364C40.0353 11.196 39.6513 11.112 39.2353 11.112C38.8433 11.112 38.4833 11.176 38.1553 11.304C37.8273 11.432 37.5433 11.616 37.3033 11.856C37.0633 12.096 36.8753 12.38 36.7393 12.708C36.6113 13.036 36.5473 13.4 36.5473 13.8C36.5473 14.2 36.6113 14.564 36.7393 14.892C36.8753 15.22 37.0633 15.504 37.3033 15.744C37.5433 15.984 37.8273 16.168 38.1553 16.296C38.4833 16.424 38.8433 16.488 39.2353 16.488C39.6513 16.488 40.0353 16.408 40.3873 16.248C40.7393 16.08 41.0593 15.828 41.3473 15.492L42.5953 16.644C42.1953 17.132 41.6993 17.504 41.1073 17.76C40.5233 18.016 39.8633 18.144 39.1273 18.144ZM49.6681 9.6H51.6121V18H49.6681V9.6ZM45.8521 18H43.9081V9.6H45.8521V18ZM49.8121 14.556H45.7081V12.912H49.8121V14.556Z" fill="#5B5B5B"/>
</svg>
